<svg xmlns="http://www.w3.org/2000/svg" width="370" height="500" viewBox="0 0 370 500">
  <defs>
    <style>
      .cls-1 {
        fill: #fff;
        
        fill-rule: evenodd;
      }
    </style>
  </defs>
  <path id="Sax_1" data-name="Sax 1" class="cls-1" d="M224.613,0c18.12-.213,26.427,12.306,34.478,22.268L276.483,37.52c6.595,4.957,19.778,9.462,25.019,14.642l-4.576,8.846c-4.591-.96-8.824-4.242-12.51-6.406-14.7-8.626-27.869-16.987-39.055-28.979-3.752-4.023-11.02-15.59-19.527-10.371-7.7,4.723-9.376,18.115-11.9,28.064l-15.866,75.955L177.93,215.054,134.909,404.179c-9.935,42-13.64,75.279-50.649,90.6-8.109,3.356-20.757,6.65-32.952,4.576-29.731-5.058-38.271-20.7-43.632-50.027-1.423-7.789-2.288-19.638-.61-28.064,4.436-22.279,13.7-40.333,20.138-60.7,5.816-18.4,8.865-37.724,12.51-58.873,3.973-23.051,2.639-75.428-11.594-83.276-7.379.864-13.127,9.515-21.968,7.321-5.368-1.332-8.9-12.865-3.356-16.777l29.291-11.287c20.058-8.694,39.119-18.977,57.362-29.589,4.774-2.777,22.561-12.81,25.935-3.355C120.536,179.17,96.1,174.388,98.6,189.43c6.242,37.578,11.815,92.061,2.136,131.473-7.3,29.719-19.47,53.869-30.512,79.616-4.074,9.5-8.662,19.923-9.459,32.029-0.546,8.3,1.283,21.27,10.374,17.387,8.736-3.732,12.595-18.091,15.561-27.759l19.832-80.225q10.983-40.567,21.969-81.141c18.2-58.451,36.058-116.928,54.31-174.788L198.678,35.69c3.009-9.547,5.135-20.349,10.679-27.454C213.147,3.38,218.443,2.687,224.613,0Zm85.433,57.348C334.425,57.1,346.431,70.06,361,79.616l-1.831,5.491c-22.279-1.029-43.926-8.614-54.615-21.658l2.135-2.135Zm-137.3,79.31c-1.614,1.036-2.634,1.378-3.356,3.356-1.154,2.525.517,4.485,1.526,5.8l3.661,0.915c3.917-1.339,6.542-7.3,1.526-9.457Zm-4.881,22.573c-2.3,1.074-3.852,1.333-4.882,3.661q-0.306,1.981-.611,3.965c1.648,3.92,7.859,6.809,10.985,2.136C176.571,164.181,172.362,159.669,167.862,159.231ZM159.623,181.8c-7.856,4.5-5.646,16.285,3.357,14.032C171.111,193.8,169.943,181.216,159.623,181.8Zm-6.407,25.319c-9.375,5.151-6.967,18.515,3.356,16.167C166.008,221.144,164.989,206.532,153.216,207.123ZM146.2,234.881c-10.081,4.957-6.778,18.71,3.357,16.168C158.682,248.759,157.627,234.348,146.2,234.881Zm-7.933,32.03c-2.985,1.288-5.563,1.849-7.323,4.27-4.909,6.754.735,18.341,10.374,16.167C152.816,284.755,151.627,266.839,138.265,266.911Zm-7.017,31.724c-5.265,2.121-9.166,3.127-10.985,8.541-2.792,8.311,4.481,18.151,13.731,16.167C148.06,320.327,147.138,299.178,131.248,298.635ZM120.569,335.24c-4.96,2.412-8.99,3.878-10.68,9.456-2.906,9.6,5.519,19.168,15.256,17.082C140.749,358.436,139.747,334.621,120.569,335.24Zm-8.849,41.485c-6.249,2.548-10.65,3.608-12.815,10.067-3.233,9.642,5.106,20.2,14.646,18.912C131.87,403.235,131.338,377.087,111.72,376.725Zm-71.4,35.69c-5.233,2.563-9.608,4.383-11.289,10.372-2.778,9.894,5.817,20.121,15.561,18.3C62.392,437.766,61.832,411.742,40.323,412.415Z"/>
</svg>
